<?xml version="1.0" encoding="iso-8859-1"?>
<!-- Uploaded to: SVG Repo, www.svgrepo.com, Generator: SVG Repo Mixer Tools -->
<svg height="800px" width="800px" version="1.1" id="Layer_1" xmlns="http://www.w3.org/2000/svg" xmlns:xlink="http://www.w3.org/1999/xlink" 
	 viewBox="0 0 470.4 470.4" xml:space="preserve">
<path style="fill:#6D583A;" d="M293.219,62.4c0,0.8,0,2.4,0,3.2l-11.2,380.8c0,12.8,10.4,23.2,23.2,23.2c12.8,0,23.2-10.4,23.2-23.2
	l-11.2-380.8c0-0.8,0-2.4,0-3.2c8-4.8,13.6-14.4,13.6-24.8c0-16-11.2-37.6-25.6-37.6s-25.6,21.6-25.6,37.6
	C279.619,48.8,285.219,57.6,293.219,62.4z"/>
<path style="fill:#3F3325;" d="M305.219,470.4c12.8,0,23.2-10.4,23.2-23.2l-11.2-380.8c0-0.8,0-2.4,0-3.2c8-4.8,13.6-14.4,13.6-24.8
	c0-16-11.2-37.6-25.6-37.6c0,0,0,0-0.8,0L305.219,470.4L305.219,470.4z"/>
<path style="fill:#DB9405;" d="M103.619,164.8c0.8,0.8,1.6,1.6,2.4,2.4l261.6,276.8c8.8,8.8,24,8.8,32.8,0s8.8-24,0-32.8
	l-276.8-261.6c-0.8-0.8-1.6-1.6-2.4-2.4c2.4-8.8-0.8-19.2-8-27.2c-11.2-11.2-34.4-18.4-44.8-8s-3.2,33.6,8,44.8
	C84.419,164,94.819,166.4,103.619,164.8z"/>
<path style="fill:#E8AA1F;" d="M400.419,444c8.8-8.8,8.8-24,0-32.8l-276.8-261.6c-0.8-0.8-1.6-1.6-2.4-2.4c2.4-8.8-0.8-19.2-8-27.2
	c-11.2-11.2-34.4-18.4-44.8-8c0,0,0,0,0,0.8L400.419,444L400.419,444z"/>
</svg>